<svg width="44" height="43" viewBox="0 0 44 43" fill="none" xmlns="http://www.w3.org/2000/svg">
<path d="M44 7.37866V11.7999H37.0526V18.4317H32.4211V11.7999H25.4737V7.37866H32.4211V0.746826H37.0526V7.37866H44ZM24.3158 22.8529C26.2333 22.8529 27.7895 21.3674 27.7895 19.537C27.7895 17.7066 26.2333 16.2211 24.3158 16.2211C22.3983 16.2211 20.8421 17.7066 20.8421 19.537C20.8421 21.3674 22.3983 22.8529 24.3158 22.8529ZM32.4211 30.0021L31.2331 28.742C29.3943 26.7856 26.1846 26.7856 24.3413 28.742L22.8244 30.3558L11.5789 18.4317L4.63158 25.7997V11.7999H20.8421V7.37866H4.63158C2.07263 7.37866 0 9.35716 0 11.7999V38.3272C0 40.7699 2.07263 42.7484 4.63158 42.7484H32.4211C34.98 42.7484 37.0526 40.7699 37.0526 38.3272V22.8529H32.4211V30.0021Z" fill="#6C757D" fill-opacity="0.4"/>
</svg>
