<svg width="30" height="27" viewBox="0 0 30 27" fill="none" xmlns="http://www.w3.org/2000/svg">
<path d="M1.66784 25L0.117841 24.3833C0.00708984 24.662 -0.0264286 24.9654 0.0208188 25.2615C0.0680662 25.5576 0.194329 25.8355 0.386299 26.0659C0.578268 26.2962 0.828831 26.4705 1.11158 26.5704C1.39432 26.6703 1.69877 26.692 1.99284 26.6333L1.66784 25ZM9.51118 23.44L10.3012 21.9717L9.77284 21.6883L9.18617 21.805L9.51118 23.44ZM4.37451 18.195L5.92451 18.8117L6.19618 18.1217L5.86951 17.4567L4.37451 18.195ZM26.6678 13.3333C26.6678 18.7433 21.9128 23.3333 15.7845 23.3333V26.6667C23.5195 26.6667 30.0012 20.81 30.0012 13.3333H26.6678ZM4.90284 13.3333C4.90284 7.92333 9.65951 3.33333 15.7862 3.33333V0C8.05118 0 1.56784 5.85667 1.56784 13.3333H4.90284ZM15.7862 3.33333C21.9128 3.33333 26.6678 7.92333 26.6678 13.3333H30.0012C30.0012 5.85667 23.5212 0 15.7862 0V3.33333ZM15.7845 23.3333C13.7762 23.3333 11.9062 22.8333 10.3012 21.9717L8.72118 24.9067C10.8934 26.0712 13.3199 26.6761 15.7845 26.6667V23.3333ZM1.99284 26.6333L9.83617 25.0733L9.18617 21.805L1.34284 23.365L1.99284 26.635V26.6333ZM5.86951 17.4567C5.23501 16.1746 4.90537 14.7638 4.90284 13.3333H1.56784C1.56784 15.3333 2.03784 17.23 2.87784 18.9333L5.86951 17.4567ZM2.82617 17.5783L0.117841 24.385L3.21451 25.615L5.92118 18.81L2.82451 17.5783H2.82617Z" fill="#6C757D" fill-opacity="0.54"/>
<path d="M10.0012 14.9998C10.9217 14.9998 11.6679 14.2536 11.6679 13.3332C11.6679 12.4127 10.9217 11.6665 10.0012 11.6665C9.08073 11.6665 8.33453 12.4127 8.33453 13.3332C8.33453 14.2536 9.08073 14.9998 10.0012 14.9998Z" fill="#B5BABE"/>
<path d="M15.8345 14.9998C16.755 14.9998 17.5012 14.2536 17.5012 13.3332C17.5012 12.4127 16.755 11.6665 15.8345 11.6665C14.914 11.6665 14.1678 12.4127 14.1678 13.3332C14.1678 14.2536 14.914 14.9998 15.8345 14.9998Z" fill="#B5BABE"/>
<path d="M21.6678 14.9998C22.5883 14.9998 23.3345 14.2536 23.3345 13.3332C23.3345 12.4127 22.5883 11.6665 21.6678 11.6665C20.7474 11.6665 20.0012 12.4127 20.0012 13.3332C20.0012 14.2536 20.7474 14.9998 21.6678 14.9998Z" fill="#B5BABE"/>
</svg>
