<svg width="26" height="26" viewBox="0 0 26 26" fill="none" xmlns="http://www.w3.org/2000/svg">
<path d="M24.9058 11.0031C25.0723 9.86669 25.0177 8.70326 24.742 7.5846C24.3779 6.10681 23.6279 4.70729 22.4921 3.55163C21.3564 2.39598 19.9809 1.63288 18.5287 1.26234C17.4293 0.981829 16.2858 0.926275 15.1689 1.09567" stroke="#A1A942" stroke-width="1.5" stroke-linecap="round" stroke-linejoin="round"/>
<path d="M19.907 10.465C20.0853 9.24762 19.714 7.96297 18.793 7.02584C17.872 6.08872 16.6095 5.71083 15.4131 5.8923" stroke="#A1A942" stroke-width="1.5" stroke-linecap="round" stroke-linejoin="round"/>
<path d="M6.85778 3.08691C7.33626 3.08691 7.77712 3.351 8.00941 3.77667L9.62061 6.72984C9.83156 7.11651 9.8415 7.5842 9.64708 7.97978L8.0949 11.1386C8.0949 11.1386 8.54472 13.4917 10.4273 15.4073C12.3099 17.3228 14.6147 17.7726 14.6147 17.7726L17.7186 16.1935C18.1076 15.9955 18.5676 16.0058 18.9478 16.2208L21.8583 17.8674C22.2763 18.1038 22.5355 18.5522 22.5355 19.0388V22.4387C22.5355 24.1702 20.9549 25.4207 19.3426 24.8671C16.0312 23.7302 10.891 21.5655 7.63309 18.2504C4.37506 14.9354 2.24766 9.70512 1.13034 6.33573C0.586314 4.69516 1.81532 3.08691 3.51691 3.08691H6.85778Z" stroke="#A1A942" stroke-width="1.5" stroke-linejoin="round"/>
</svg>
