<svg width="26" height="26" viewBox="0 0 26 26" fill="none" xmlns="http://www.w3.org/2000/svg">
<path d="M13 14.7686C10.8353 14.7686 9.06973 16.5905 9.06973 18.8242V25.9997H16.9302V18.8242C16.9302 16.5905 15.1646 14.7686 13 14.7686Z" fill="#B5BABE"/>
<path d="M24.0651 6.95704L15.6 0.842332C14.04 -0.280777 11.9479 -0.280777 10.4 0.842332L1.93488 6.95704C0.725581 7.83057 0 9.26565 0 10.7881V21.3204C0 23.9035 2.03163 26 4.53488 26H7.25581V18.8246C7.25581 15.5551 9.83163 12.897 13 12.897C16.1684 12.897 18.7442 15.5551 18.7442 18.8246V26H21.4651C23.9684 26 26 23.9035 26 21.3204V10.7881C26 9.26565 25.2744 7.83057 24.0651 6.95704Z" fill="#B5BABE"/>
</svg>
