<svg width="30" height="30" viewBox="0 0 30 30" fill="none" xmlns="http://www.w3.org/2000/svg">
<path d="M26.9999 17.4145C26.7962 17.3134 26.6249 17.1572 26.5056 16.9637C26.3863 16.7701 26.3237 16.5469 26.3249 16.3195V11.2495C26.3249 8.26583 25.1397 5.40434 23.0299 3.29456C20.9201 1.18478 18.0586 -0.000488281 15.0749 -0.000488281C12.0912 -0.000488281 9.22975 1.18478 7.11997 3.29456C5.01018 5.40434 3.82492 8.26583 3.82492 11.2495V16.3195C3.82615 16.5469 3.76354 16.7701 3.64421 16.9637C3.52489 17.1572 3.35363 17.3134 3.14992 17.4145C2.30251 17.8448 1.62265 18.5453 1.21779 19.4051C0.812934 20.265 0.706156 21.2353 0.914333 22.1626C1.12251 23.0899 1.63377 23.9215 2.36732 24.5258C3.10087 25.1301 4.01488 25.4727 4.96492 25.4995H25.0349C25.5962 25.4956 26.1512 25.3805 26.6677 25.1607C27.1842 24.9409 27.652 24.6209 28.0439 24.2191C28.4359 23.8174 28.7444 23.3419 28.9514 22.8201C29.1584 22.2984 29.2598 21.7407 29.2499 21.1795C29.2634 20.4045 29.0598 19.6413 28.6622 18.9759C28.2646 18.3106 27.6888 17.7698 26.9999 17.4145Z" fill="#6C757D" fill-opacity="0.5"/>
<path d="M19.4994 29.9995H10.4994C10.1016 29.9995 9.72006 29.8415 9.43876 29.5602C9.15746 29.2789 8.99942 28.8973 8.99942 28.4995C8.99942 28.1017 9.15746 27.7202 9.43876 27.4389C9.72006 27.1575 10.1016 26.9995 10.4994 26.9995H19.4994C19.8972 26.9995 20.2788 27.1575 20.5601 27.4389C20.8414 27.7202 20.9994 28.1017 20.9994 28.4995C20.9994 28.8973 20.8414 29.2789 20.5601 29.5602C20.2788 29.8415 19.8972 29.9995 19.4994 29.9995Z" fill="#6C757D" fill-opacity="0.5"/>
</svg>
