<svg width="24" height="24" viewBox="0 0 24 24" fill="none" xmlns="http://www.w3.org/2000/svg">
<g clip-path="url(#clip0_51_13062)">
<path d="M12.03 1.80953C14.7816 2.72078 17.6058 3.79375 20.0208 4.73031C20.1886 5.82953 20.4188 7.71484 20.4628 9.99391C20.5017 12.5898 20.287 14.0219 20.1919 14.5211C19.9927 15.2087 19.5745 15.9559 18.9492 16.7416C18.2077 17.6725 17.198 18.6405 15.9483 19.6178C15.9474 19.6183 15.9464 19.6192 15.9459 19.6197C14.1699 21.0137 12.5255 21.9123 12.03 22.1711C11.5345 21.9128 9.89204 21.0161 8.11689 19.623L8.11454 19.6211C6.86532 18.6442 5.8561 17.6767 5.11595 16.7463C4.52204 15.9995 4.11517 15.287 3.90517 14.6284C3.89954 14.6064 3.89345 14.5844 3.88642 14.5619C3.79267 14.2445 3.49126 12.9662 3.53673 9.82C3.58642 7.81562 3.77017 6.025 4.05704 4.71812C6.46454 3.78578 9.28032 2.7175 12.03 1.80906M12.03 0.00390625C11.8889 0.00390625 11.7474 0.0264062 11.61 0.071875C8.91423 0.957812 6.14907 1.99703 3.33704 3.08641C2.95876 3.23312 2.64142 3.50453 2.43517 3.83453C2.4511 3.83641 1.8572 5.69031 1.75595 9.78484C1.69595 13.8798 2.20595 15.1066 2.18907 15.108C2.46517 16.008 2.98173 16.9234 3.72189 17.8544C4.54923 18.8941 5.6672 19.968 7.01767 21.0236C9.25314 22.7781 11.3452 23.8267 11.4328 23.8637C11.6222 23.9566 11.8233 24.0034 12.0305 24.0034H12.0309C12.2386 24.0034 12.4397 23.9561 12.6291 23.8628C12.7172 23.8258 14.8116 22.7739 17.0461 21.0198C18.397 19.9633 19.515 18.8894 20.3428 17.8502C21.1359 16.8531 21.6722 15.8748 21.9314 14.9139C21.9211 14.9125 22.2961 13.4087 22.2441 9.96297C22.178 6.51766 21.698 3.97656 21.7045 3.97422C21.5049 3.58469 21.1547 3.25891 20.7263 3.0925C17.9138 2.00266 15.1481 0.961562 12.4519 0.0728125C12.3136 0.0273437 12.172 0.004375 12.0305 0.004375L12.03 0.00390625Z" fill="white"/>
<path d="M12.0289 16.5504C11.5151 16.5504 11.0323 16.3507 10.6695 15.9874C10.3062 15.6241 10.1061 15.1413 10.1061 14.628V13.1266C9.32044 12.5384 8.85075 11.6168 8.85028 10.6095C8.85028 8.87273 10.2631 7.45945 11.9998 7.45898C12.8412 7.45898 13.6325 7.78664 14.2273 8.38148C14.8222 8.97633 15.1503 9.76758 15.1503 10.609C15.1503 11.5854 14.7017 12.4915 13.9512 13.0826V14.628C13.9512 15.1418 13.7515 15.6246 13.3882 15.9874C13.025 16.3507 12.5422 16.5504 12.0289 16.5509V16.5504ZM12.0003 9.23977C11.2456 9.23977 10.6315 9.85383 10.6315 10.6085C10.6315 11.1316 10.9231 11.6018 11.3928 11.8352C11.6956 11.9857 11.8868 12.2946 11.8868 12.6326V14.6276C11.8868 14.7054 11.9506 14.7691 12.0284 14.7691C12.0767 14.7691 12.1095 14.7466 12.1282 14.7279C12.147 14.7091 12.1695 14.6763 12.1695 14.628V12.6045C12.1695 12.2754 12.3509 11.973 12.6415 11.8184C13.0901 11.5793 13.369 11.1162 13.3686 10.609C13.3686 10.2434 13.2261 9.89977 12.9678 9.64102C12.709 9.38273 12.3654 9.24023 11.9998 9.24023L12.0003 9.23977Z" fill="white"/>
</g>
<defs>
<clipPath id="clip0_51_13062">
<rect width="24" height="24" fill="white"/>
</clipPath>
</defs>
</svg>
