<svg width="18" height="18" viewBox="0 0 18 18" fill="none" xmlns="http://www.w3.org/2000/svg">
<path opacity="0.5" d="M16.5 9C16.5 4.8579 13.1421 1.5 9 1.5C4.85786 1.5 1.5 4.8579 1.5 9C1.5 13.1421 4.85786 16.5 9 16.5C13.1421 16.5 16.5 13.1421 16.5 9Z" fill="#FBBC05"/>
<path d="M7.80953 11.6264L7.93245 11.8469C8.40743 12.6989 8.64495 13.125 9 13.125C9.35505 13.125 9.59258 12.699 10.0676 11.8469L10.1905 11.6264C10.3254 11.3843 10.3929 11.2632 10.4981 11.1833C10.6034 11.1034 10.7345 11.0738 10.9966 11.0145L11.2352 10.9605C12.1576 10.7518 12.6188 10.6474 12.7285 10.2946C12.8382 9.94178 12.5238 9.57412 11.895 8.83875L11.7322 8.64855C11.5536 8.4396 11.4643 8.33512 11.4241 8.20582C11.3839 8.0766 11.3974 7.93717 11.4244 7.6584L11.449 7.4046C11.5441 6.42352 11.5916 5.93295 11.3043 5.71492C11.0171 5.49682 10.5853 5.69565 9.72165 6.0933L9.49823 6.1962C9.25275 6.30915 9.13005 6.3657 9 6.3657C8.86995 6.3657 8.74725 6.30915 8.50178 6.1962L8.27835 6.0933C7.41475 5.69565 6.98294 5.49682 6.69568 5.71492C6.40842 5.93295 6.45596 6.42352 6.55103 7.4046L6.57562 7.6584C6.60263 7.93717 6.61614 8.0766 6.57595 8.20582C6.53576 8.33512 6.44641 8.4396 6.26772 8.64855L6.10504 8.83875C5.47622 9.57412 5.16181 9.94178 5.27153 10.2946C5.38126 10.6474 5.84246 10.7518 6.76483 10.9605L7.00346 11.0145C7.26557 11.0738 7.39663 11.1034 7.50188 11.1833C7.6071 11.2632 7.6746 11.3843 7.80953 11.6264Z" fill="#23255B"/>
</svg>
